HIERARCHY
ROOT Hips
{
  OFFSET 2.26061 22.2878 23.7974
  CHANNELS 6 Xposition Yposition Zposition Zrotation Xrotation Yrotation
  JOINT LeftUpLeg
  {
    OFFSET 8.64259 1.95398 -2.38835
    CHANNELS 3 Zrotation Xrotation Yrotation
    JOINT LeftLeg
    {
      OFFSET 43.7702 0 0
      CHANNELS 3 Zrotation Xrotation Yrotation
      JOINT LeftFoot
      {
        OFFSET 40.6238 0 0
        CHANNELS 3 Zrotation Xrotation Yrotation
        JOINT LeftToeBase
        {
          OFFSET 12.7242 0 0
          CHANNELS 3 Zrotation Xrotation Yrotation
          End Site
          {
            OFFSET 0 0 0
          }
        }
      }
    }
  }
  JOINT RightUpLeg
  {
    OFFSET -8.2249 1.95398 -2.59336
    CHANNELS 3 Zrotation Xrotation Yrotation
    JOINT RightLeg
    {
      OFFSET 43.5653 0 0
      CHANNELS 3 Zrotation Xrotation Yrotation
      JOINT RightFoot
      {
        OFFSET 40.6238 0 0
        CHANNELS 3 Zrotation Xrotation Yrotation
        JOINT RightToeBase
        {
          OFFSET 12.7242 0 0
          CHANNELS 3 Zrotation Xrotation Yrotation
          End Site
          {
            OFFSET 0 0 0
          }
        }
      }
    }
  }
  JOINT Spine
  {
    OFFSET 0.165834 0.87714 6.61349
    CHANNELS 3 Zrotation Xrotation Yrotation
    JOINT Spine1
    {
      OFFSET 7.38963 1.71661e-005 0
      CHANNELS 3 Zrotation Xrotation Yrotation
      JOINT Spine2
      {
        OFFSET 11.9445 1.14441e-005 0
        CHANNELS 3 Zrotation Xrotation Yrotation
        JOINT Spine3
        {
          OFFSET 14.7254 4.19617e-005 0
          CHANNELS 3 Zrotation Xrotation Yrotation
          JOINT Spine4
          {
            OFFSET 10.9679 0 0
            CHANNELS 3 Zrotation Xrotation Yrotation
            JOINT RightShoulder
            {
              OFFSET 2.46616 -1.6653 3.69651
              CHANNELS 3 Zrotation Xrotation Yrotation
              JOINT RightArm
              {
                OFFSET 13.0012 0 0
                CHANNELS 3 Zrotation Xrotation Yrotation
                JOINT RightForeArm
                {
                  OFFSET 28.7848 1.52588e-005 0
                  CHANNELS 3 Zrotation Xrotation Yrotation
                  JOINT RightHand
                  {
                    OFFSET 26.5688 1.52588e-005 0
                    CHANNELS 3 Zrotation Xrotation Yrotation
                    End Site
                    {
                      OFFSET 0 0 0
                    }
                  }
                }
              }
            }
            JOINT LeftShoulder
            {
              OFFSET 2.38034 -1.29275 -3.7523
              CHANNELS 3 Zrotation Xrotation Yrotation
              JOINT LeftArm
              {
                OFFSET 16.3182 6.10351e-005 0
                CHANNELS 3 Zrotation Xrotation Yrotation
                JOINT LeftForeArm
                {
                  OFFSET 27.0901 0 0
                  CHANNELS 3 Zrotation Xrotation Yrotation
                  JOINT LeftHand
                  {
                    OFFSET 24.5451 1.52588e-005 0
                    CHANNELS 3 Zrotation Xrotation Yrotation
                    End Site
                    {
                      OFFSET 0 0 0
                    }
                  }
                }
              }
            }
            JOINT Neck
            {
              OFFSET 5.0226 -0.0266342 0
              CHANNELS 3 Zrotation Xrotation Yrotation
              JOINT Head
              {
                OFFSET 6.69363 2.86102e-005 0
                CHANNELS 3 Zrotation Xrotation Yrotation
                End Site
                {
                  OFFSET 0 0 0
                }
              }
            }
          }
        }
      }
    }
  }
}
MOTION
Frames:	9
Frame Time:	0.0416667
-272.742 71.2389 -270.357 109.299 -58.2438 106.61 -170.548 -5.83355 92.806 -98.902 -17.0341 -9.76425 -178.709 -7.83113 -36.9872 1.99969 -21.7797 -0.130306 -167.811 57.5498 96.462 -90.0976 -16.1841 -0.913967 80.1866 -12.6684 -5.40222 45.8167 45.794 151.483 1.83737 9.53287 -88.9451 7.77183 4.12771 1.8639 -3.89364 4.20571 1.68018 -26.4561 3.37681 3.01891 -6.44346 3.37679 3.01892 124.146 -72.3409 -55.5948 8.20485 -30.8886 32.125 -79.5117 55.0303 -77.7046 -13.7038 7.92942 -62.1525 -104.031 -56.1211 60.6816 -13.1417 13.4752 16.0801 9.53585 -3.04245 -86.4315 32.7329 1.06691 -0.711881 15.0145 -2.28283 -13.0228 -2.20761 1.07507 8.36779 
-272.708 71.9657 -269.623 106.764 -57.5913 101.89 -170.919 -6.69928 87.3081 -93.7519 -19.4691 -6.52358 179.222 1.28245 -33.4878 0.482618 -21.5612 -3.15026 -165.503 56.3491 92.5547 -91.7879 -16.1185 -1.31333 82.6388 -13.4836 -5.38582 43.3626 39.1493 154.09 0.931849 10.1958 -88.749 6.45125 2.39266 2.37815 -5.21942 2.49499 2.27055 -27.7465 1.56765 2.98694 -7.73381 1.56764 2.98694 92.7748 -54.8667 -95.59 31.8494 -22.4142 38.6616 -125.022 33.8903 -46.2773 -19.8861 7.80024 -49.986 -100.41 -49.7667 63.3339 -16.9437 3.01523 5.43164 9.68866 -3.44389 -93.5554 28.546 0.845413 -1.00589 13.2589 1.12596 -6.9084 4.80331 3.06348 5.09 
-271.701 74.3004 -268.658 100.215 -55.7028 97.1818 -170.845 -8.95503 86.4379 -81.6282 -11.8773 -3.47696 174.769 18.562 -30.3799 -1.40294 -20.4267 -8.47495 -167.208 54.1325 92.1069 -91.1861 -16.1705 -0.91009 85.6125 -14.0561 -5.41942 37.8404 12.7078 161.356 0.557179 9.69463 -89.0123 7.47056 1.54038 1.87681 -4.20067 1.6215 1.80721 -26.7286 0.905254 2.25283 -6.71591 0.905261 2.25282 93.5366 -55.855 -94.4592 31.7066 -23.4484 43.9671 -125.961 22.057 -58.6432 -34.3797 10.7758 -33.783 -99.1248 -49.9465 65.254 -17.8613 3.88516 3.41114 14.9014 -5.04191 -99.2435 32.8109 1.56755 0.856287 12.2407 1.39659 -6.62724 3.5634 3.19904 5.80051 
-270.073 78.8122 -266.809 90.6224 -51.3373 90.0828 -170.965 -11.9023 88.9066 -63.2515 7.06384 -2.46903 161.536 39.8742 -23.4493 0.00271167 -16.8846 -13.9916 -171.389 52.4335 92.1191 -85.8795 -14.8283 -0.559025 82.2396 -12.878 -6.25217 -102.198 -79.8897 40.0007 -0.0957303 8.97214 -89.2294 8.9246 0.152434 1.51197 -2.74721 0.218813 1.5038 -25.2753 -0.308955 1.48789 -5.26268 -0.308964 1.48789 92.5406 -56.2074 -95.8344 32.7856 -21.7584 48.7525 -139.808 -2.63089 -77.5907 -51.7149 4.75748 -4.89801 -98.5749 -48.9924 65.7181 -19.1494 2.10115 5.16694 16.6132 -7.32771 -106.48 32.438 1.65219 1.18451 9.56107 2.07717 -7.19757 4.70412 3.98449 7.15279 
-267.846 84.4808 -264.027 80.3031 -44.1922 82.5415 -171.523 -13.6668 90.4583 -43.7786 22.5107 -0.426901 123.076 47.3052 3.45419 12.4315 -7.99432 -16.9861 -176.673 54.0293 91.7289 -75.1887 -9.83792 0.201847 71.8055 -9.94866 -5.82033 32.8144 0.543197 -11.7439 -0.942656 8.14297 -89.5142 10.5959 -1.65407 1.11488 -1.07455 -1.60341 1.1866 -23.6169 -1.91264 0.566116 -3.60423 -1.91266 0.566103 92.4635 -55.2227 -96.1102 33.716 -19.9874 50.4643 -154.022 -7.91907 -99.1521 -65.263 -4.09017 14.9259 -98.2491 -48.9865 66.1953 -19.6326 2.41734 6.30819 17.1825 -9.42792 -111.999 32.3907 1.60151 1.03183 9.1232 2.76729 -6.33776 4.72512 4.4906 7.40824 
-264.886 88.8724 -261.01 74.3986 -37.1758 79.5661 -172.85 -7.56731 91.2273 -43.8736 23.859 2.83679 85.5625 23.8012 17.7368 47.1301 11.3746 -20.8992 178.48 54.6999 91.5258 -58.4894 -3.3903 1.56073 65.6004 -7.98851 -4.96176 44.2865 0.160111 -8.26015 -1.62661 7.5491 -89.9013 11.7854 -3.18868 0.530329 0.118203 -3.16227 0.67029 -22.4483 -3.20049 -0.453538 -2.43563 -3.2005 -0.453546 93.2325 -53.7563 -95.2273 34.1735 -18.511 49.7653 -157.96 -9.92895 -104.745 -74.1426 -5.69634 16.1552 -99.0082 -49.3626 65.2158 -19.0602 3.34496 7.67781 17.8141 -10.9786 -114.353 30.8124 1.63802 1.42725 10.0509 3.12966 -3.78633 4.05756 4.2448 6.04105 
-261.436 90.4783 -257.494 74.4642 -36.1815 78.2994 -173.53 -1.53856 90.7029 -50.3668 17.4043 2.45309 57.4421 -5.87647 4.96419 89.7329 24.2508 -39.6666 177.931 52.0092 90.3527 -48.4468 2.00554 1.10729 61.2562 -4.80041 -3.04974 46.68 0.111792 -8.45894 -1.72986 7.45219 -89.8413 11.9855 -3.36459 0.681889 0.318698 -3.33131 0.829458 -22.2514 -3.41379 -0.362033 -2.23879 -3.4138 -0.362035 93.5668 -53.997 -94.6969 33.2403 -16.9919 47.6839 -153.517 -11.8087 -103.452 -86.2736 -0.387565 7.99899 -98.8557 -48.7344 65.2132 -20.2015 6.23656 9.58623 14.7514 -9.50333 -112.929 33.7453 1.40943 0.241497 8.9564 3.17266 -2.01488 4.32973 3.83761 4.75029 
-258.14 90.7809 -253.788 77.417 -37.1188 77.3431 -174.012 0.0162964 89.9825 -54.1134 14.7076 1.19072 42.3178 -13.6499 -3.24539 107.229 24.1632 -50.1832 177.887 46.8993 88.9645 -44.9924 3.87608 -0.264562 58.3893 -2.12202 -1.30115 44.0433 0.11566 -9.88109 -1.57426 7.56643 -89.5976 11.7585 -2.94192 1.11343 0.0903377 -2.89009 1.24192 -22.4716 -3.14044 0.17696 -2.45891 -3.14045 0.176952 94.4007 -55.1974 -93.303 30.6796 -15.9858 44.0287 -153.828 -12.2445 -105.247 -85.9811 0.330499 6.61334 -100.625 -48.9682 62.7107 -21.0621 8.53973 12.0941 13.9584 -7.42651 -107.732 40.9029 1.87942 0.604525 5.40892 2.54177 -0.968331 6.6272 3.13952 5.19894 
-253.551 90.7659 -249.278 77.2367 -41.5997 78.5083 -171.097 5.48645 90.6783 -64.3316 12.2496 -0.133109 39.4083 -13.2848 -4.61002 111.013 25.2846 -50.3693 177.91 40.7975 92.9358 -42.9824 2.31844 -0.859669 63.2873 -3.02606 -1.76853 35.0611 0.358523 -4.7157 -0.915233 7.64531 -89.8408 11.5882 -1.74614 0.497705 -0.0817125 -1.72252 0.574089 -22.6263 -1.81496 -0.05027 -2.61364 -1.81496 -0.0502547 94.622 -54.9142 -93.0184 28.4927 -15.2814 38.1316 -143.952 -15.4843 -103.844 -97.4687 10.0993 -2.88364 -101.296 -49.6784 62.0121 -22.7554 10.3254 13.9582 10.1439 -5.48721 -100.636 36.7079 0.455652 -2.83101 4.31641 2.53025 1.36828 7.74911 2.70227 4.07558 
